<?xml version="1.0" encoding="UTF-8" standalone="no"?>
<!-- Created with Inkscape (http://www.inkscape.org/) -->

<svg
   xmlns:dc="http://purl.org/dc/elements/1.1/"
   xmlns:cc="http://creativecommons.org/ns#"
   xmlns:rdf="http://www.w3.org/1999/02/22-rdf-syntax-ns#"
   xmlns:svg="http://www.w3.org/2000/svg"
   xmlns="http://www.w3.org/2000/svg"
   xmlns:sodipodi="http://sodipodi.sourceforge.net/DTD/sodipodi-0.dtd"
   xmlns:inkscape="http://www.inkscape.org/namespaces/inkscape"
   width="210mm"
   height="297mm"
   viewBox="0 0 210 297"
   version="1.1"
   id="svg8"
   inkscape:version="0.92.3 (3ce5693, 2018-03-11)"
   sodipodi:docname="si-glyph-file-download.svg">
  <defs
     id="defs2" />
  <sodipodi:namedview
     id="base"
     pagecolor="#ffffff"
     bordercolor="#666666"
     borderopacity="1.0"
     inkscape:pageopacity="0.0"
     inkscape:pageshadow="2"
     inkscape:zoom="44.8"
     inkscape:cx="382.19456"
     inkscape:cy="489.44579"
     inkscape:document-units="mm"
     inkscape:current-layer="layer1"
     showgrid="false"
     inkscape:window-width="1920"
     inkscape:window-height="1015"
     inkscape:window-x="0"
     inkscape:window-y="0"
     inkscape:window-maximized="1" />
  <metadata
     id="metadata5">
    <rdf:RDF>
      <cc:Work
         rdf:about="">
        <dc:format>image/svg+xml</dc:format>
        <dc:type
           rdf:resource="http://purl.org/dc/dcmitype/StillImage" />
        <dc:title />
      </cc:Work>
    </rdf:RDF>
  </metadata>
  <g
     inkscape:label="Calque 1"
     inkscape:groupmode="layer"
     id="layer1">
    <g
       id="g20"
       transform="matrix(0.26458333,0,0,0.26458333,98.168619,164.71863)"
       style="fill:none;fill-rule:evenodd;stroke:none;stroke-width:1">
      <g
         id="g18"
         transform="translate(1,1)"
         style="fill:#434343">
        <path
           id="path14"
           class="si-glyph-fill"
           d="m 14.031,8.016 v 4 H 2 v -4 H 0 V 15 H 15.938 V 8.016 Z"
           inkscape:connector-curvature="0" />
        <path
           id="path16"
           class="si-glyph-fill"
           d="M 8.072,8.947 10.982,5.071 8.968,5.05 V 0.065 H 7.03 V 5.05 h -2 z"
           inkscape:connector-curvature="0" />
      </g>
    </g>
    <path
       style="fill:#ececec;stroke-width:0.02232143"
       d="m 372.04724,635.06943 v -3.48215 h 0.98214 0.98214 v 1.99777 1.99777 h 6.02679 6.02678 v -1.99777 -1.99777 h 0.94866 0.94866 v 3.48215 3.48214 h -7.95758 -7.95759 z"
       id="path48"
       inkscape:connector-curvature="0"
       transform="scale(0.26458333)" />
    <path
       style="fill:#cccccc;stroke-width:0.02232143"
       d="m 378.59303,630.55442 -1.50108,-1.92472 0.99327,-0.006 0.99327,-0.006 v -2.4886 -2.48861 h 0.95982 0.95982 v 2.48884 2.48883 l 0.45201,0.003 c 0.2486,0.002 0.69498,0.009 0.99194,0.0168 l 0.53994,0.0137 -1.43279,1.91309 c -0.78804,1.0522 -1.43782,1.91331 -1.44396,1.91357 -0.006,2.5e-4 -0.68664,-0.86566 -1.51224,-1.92426 z"
       id="path50"
       inkscape:connector-curvature="0"
       transform="scale(0.26458333)" />
    <path
       style="fill:#cccccc;stroke-width:0.02232143"
       d="m 372.04724,635.06943 v -3.48215 h 0.98214 0.98214 v 1.99777 1.99777 h 6.02121 6.0212 l -0.006,-2.00335 -0.006,-2.00335 0.96006,0.006 0.96006,0.006 v 3.48167 3.48168 h -7.95758 -7.95759 z"
       id="path52"
       inkscape:connector-curvature="0"
       transform="scale(0.26458333)" />
    <path
       style="fill:#ffffff;stroke-width:0.02232143"
       d=""
       id="path54"
       inkscape:connector-curvature="0"
       transform="scale(0.26458333)" />
    <path
       style="fill:#ffffff;stroke-width:0.02232143"
       d=""
       id="path56"
       inkscape:connector-curvature="0"
       transform="scale(0.26458333)" />
  </g>
</svg>
